<?xml version="1.0" standalone="no"?>
<!DOCTYPE svg PUBLIC "-//W3C//DTD SVG 20010904//EN"
        "http://www.w3.org/TR/2001/REC-SVG-20010904/DTD/svg10.dtd">
<svg version="1.0" xmlns="http://www.w3.org/2000/svg"
     width="998.000000pt" height="698.000000pt" viewBox="0 0 998.000000 698.000000"
     preserveAspectRatio="xMidYMid meet">

    <g transform="translate(0.000000,698.000000) scale(0.100000,-0.100000)"
       fill="#000000" stroke="none">
        <path d="M6455 5850 c-343 -23 -678 -116 -999 -277 -532 -267 -988 -768 -1206
-1327 -42 -107 -93 -267 -87 -273 8 -7 111 -33 115 -28 3 2 22 55 42 117 181
544 543 1005 1023 1302 294 181 628 300 977 347 122 16 458 17 580 1 559 -73
1038 -305 1430 -694 454 -451 709 -1065 710 -1710 1 -835 -418 -1595 -1129
-2048 -246 -156 -491 -256 -784 -320 -185 -40 -324 -53 -532 -52 -385 1 -719
83 -1078 264 -219 110 -394 236 -581 417 -290 284 -492 604 -616 979 -21 62
-40 115 -43 118 -8 8 -117 -25 -117 -35 0 -5 20 -68 45 -140 106 -308 246
-561 447 -803 490 -590 1200 -928 1951 -928 422 0 781 82 1142 260 644 317
1117 882 1323 1580 68 230 96 440 96 710 -1 433 -84 775 -281 1162 -147 290
-354 555 -593 759 -392 335 -855 541 -1356 603 -155 19 -342 25 -479 16z"/>
        <path d="M522 3433 l3 -398 393 -3 392 -3 0 48 0 48 -317 -3 c-175 -2 -333 0
-350 3 l-33 6 0 349 0 350 -45 0 -45 0 2 -397z"/>
        <path d="M4232 3433 l3 -398 40 0 40 0 3 173 2 172 240 1 c132 1 246 2 253 3
7 1 12 17 12 46 l0 45 -252 3 -253 2 0 130 0 130 315 0 315 0 0 45 0 45 -360
0 -360 0 2 -397z"/>
        <path d="M7830 3635 l0 -45 45 0 45 0 0 45 0 45 -45 0 -45 0 0 -45z"/>
        <path d="M1433 3650 c-61 -37 -64 -55 -61 -310 l3 -230 32 -31 c42 -43 79 -48
371 -48 l243 -1 -3 47 -3 46 -268 1 c-226 1 -269 3 -277 16 -5 8 -10 50 -10
93 l0 77 280 0 280 0 0 125 c0 144 -11 184 -62 215 -31 18 -50 20 -263 20
-211 0 -233 -2 -262 -20z m487 -89 c5 -11 10 -51 10 -90 l0 -71 -235 0 -235 0
0 78 c0 47 5 83 12 90 9 9 73 12 225 12 200 0 213 -1 223 -19z"/>
        <path d="M2130 3625 l0 -45 268 0 c195 0 271 -3 280 -12 7 -7 12 -43 12 -90
l0 -78 -280 0 -280 0 0 -125 c0 -143 10 -180 61 -216 33 -23 38 -23 311 -27
l278 -3 0 273 c0 299 -2 306 -59 345 -33 23 -39 23 -312 23 l-279 0 0 -45z
m560 -409 l0 -94 -221 2 c-260 1 -249 -4 -249 113 l0 73 235 0 235 0 0 -94z"/>
        <path d="M2952 3650 c-58 -35 -62 -59 -62 -354 l0 -265 43 2 42 2 3 259 c1
171 6 264 13 273 9 10 55 13 200 13 l189 0 0 45 0 45 -197 0 c-181 0 -201 -2
-231 -20z"/>
        <path d="M3460 3350 l0 -320 28 1 c66 3 62 -16 62 268 0 186 3 260 12 269 9 9
73 12 225 12 200 0 213 -1 223 -19 6 -12 10 -118 10 -275 l0 -256 28 1 c68 3
64 -18 60 282 -4 381 21 357 -370 357 l-278 0 0 -320z"/>
        <path d="M5084 3651 c-63 -38 -64 -43 -64 -293 0 -152 4 -236 12 -253 6 -14
28 -36 47 -48 34 -21 46 -22 261 -22 332 0 324 -8 328 299 4 240 -4 279 -62
316 -31 19 -49 20 -262 20 -208 0 -232 -2 -260 -19z m476 -81 c13 -8 15 -43
15 -214 0 -155 -3 -208 -13 -218 -10 -10 -62 -13 -215 -12 -111 0 -210 3 -220
7 -15 6 -17 26 -17 211 0 112 3 211 6 220 5 14 34 16 218 16 116 0 218 -5 226
-10z"/>
        <path d="M5829 3647 c-57 -39 -59 -46 -59 -344 l0 -272 43 2 42 3 3 258 c1
171 6 264 13 273 9 10 55 13 200 13 l189 0 0 45 0 45 -199 0 c-190 0 -199 -1
-232 -23z"/>
        <path d="M6383 3650 c-59 -35 -63 -55 -63 -297 0 -198 2 -221 20 -250 41 -67
59 -71 343 -72 l197 -1 0 -64 c0 -94 2 -94 -240 -92 l-200 1 0 -47 0 -48 208
0 c232 0 257 6 299 69 23 34 23 37 23 373 0 375 -2 391 -62 428 -31 18 -50 20
-263 20 -211 0 -233 -2 -262 -20z m485 -82 c9 -9 12 -70 12 -214 0 -175 -2
-203 -17 -215 -25 -21 -399 -24 -430 -4 -23 15 -23 18 -23 218 0 145 3 206 12
215 17 17 429 17 446 0z"/>
        <path d="M7134 3651 c-63 -39 -64 -42 -64 -299 l0 -234 38 -38 c48 -49 77 -52
377 -48 l230 3 0 44 0 44 -251 -2 c-151 -1 -261 2 -277 8 -26 10 -27 13 -27
96 l0 85 281 0 281 0 -4 138 c-4 148 -10 167 -65 203 -25 17 -51 19 -258 19
-209 0 -233 -2 -261 -19z m486 -97 c6 -14 10 -54 10 -90 l0 -64 -235 0 -235 0
0 78 c0 47 5 83 12 90 9 9 73 12 225 12 l213 0 10 -26z"/>
        <path d="M7872 3123 l-43 -4 3 -42 c3 -42 3 -42 46 -45 l42 -3 0 50 c0 28 -1
50 -2 49 -2 -1 -22 -3 -46 -5z"/>
    </g>
</svg>
